<svg width="159" height="32" viewBox="0 0 159 32" fill="none" xmlns="http://www.w3.org/2000/svg">
<path d="M12.4082 6.66054V7.19123C11.8067 7.20892 11.3468 7.27968 11.0284 7.40351C10.7277 7.50964 10.5242 7.72192 10.4181 8.04034C10.312 8.34106 10.2589 8.81868 10.2589 9.4732V22.7405C10.2589 23.3419 10.3031 23.793 10.3916 24.0938C10.4977 24.3945 10.6923 24.5979 10.9753 24.7041C11.276 24.7925 11.7006 24.8367 12.249 24.8367H13.9737C14.7344 24.8367 15.3712 24.7306 15.8842 24.5183C16.4149 24.306 16.8571 23.9876 17.2109 23.5631C17.5647 23.1385 17.8389 22.5901 18.0335 21.9179C18.2281 21.2457 18.3785 20.4585 18.4846 19.5563H19.0949C19.0418 20.1224 19.0153 20.8654 19.0153 21.7852C19.0153 22.139 19.0241 22.6609 19.0418 23.3508C19.0772 24.023 19.1303 24.7217 19.201 25.447C18.2989 25.4116 17.2817 25.394 16.1496 25.394C15.0174 25.3763 14.0091 25.3674 13.1246 25.3674C12.7178 25.3674 12.1959 25.3674 11.5591 25.3674C10.9222 25.3674 10.2323 25.3763 9.48938 25.394C8.7641 25.394 8.02113 25.4028 7.26047 25.4205C6.51751 25.4205 5.80107 25.4293 5.11117 25.447V24.9163C5.71262 24.881 6.16371 24.8102 6.46444 24.7041C6.76516 24.5979 6.95975 24.3856 7.0482 24.0672C7.15434 23.7488 7.20741 23.2712 7.20741 22.6344V9.4732C7.20741 8.81868 7.15434 8.34106 7.0482 8.04034C6.95975 7.72192 6.75632 7.50964 6.4379 7.40351C6.13718 7.27968 5.69493 7.20892 5.11117 7.19123V6.66054C5.51804 6.67823 6.03988 6.69592 6.67671 6.71361C7.33123 6.7313 8.02998 6.74014 8.77295 6.74014C9.44515 6.74014 10.1085 6.7313 10.763 6.71361C11.4352 6.69592 11.9836 6.67823 12.4082 6.66054ZM24.3409 25.6328C23.5979 25.6328 22.9611 25.4912 22.4304 25.2082C21.8997 24.9252 21.5017 24.536 21.2363 24.0407C20.971 23.5454 20.8383 22.9793 20.8383 22.3425C20.8383 21.5641 21.0152 20.9361 21.369 20.4585C21.7228 19.9632 22.1739 19.5652 22.7223 19.2645C23.2883 18.9637 23.8809 18.7161 24.5001 18.5215C25.1369 18.3092 25.7295 18.1146 26.2779 17.9377C26.844 17.7431 27.3039 17.522 27.6577 17.2744C28.0292 17.0267 28.2149 16.6995 28.2149 16.2926V14.4882C28.2149 13.8514 28.1088 13.3473 27.8965 12.9758C27.7019 12.5866 27.4277 12.3124 27.0739 12.1532C26.7378 11.994 26.331 11.9144 25.8533 11.9144C25.4465 11.9144 25.0131 11.9763 24.5531 12.1001C24.0932 12.2063 23.7306 12.4274 23.4652 12.7635C23.8544 12.8696 24.1728 13.0819 24.4205 13.4003C24.6858 13.701 24.8185 14.0814 24.8185 14.5413C24.8185 15.0366 24.6504 15.4258 24.3143 15.7088C23.9959 15.9919 23.5891 16.1334 23.0937 16.1334C22.5454 16.1334 22.1385 15.9653 21.8732 15.6292C21.6078 15.2754 21.4751 14.8686 21.4751 14.4086C21.4751 13.931 21.5901 13.5418 21.8201 13.2411C22.0677 12.9404 22.3862 12.6574 22.7753 12.392C23.1999 12.109 23.7394 11.8702 24.3939 11.6756C25.0661 11.481 25.8091 11.3837 26.6228 11.3837C27.3835 11.3837 28.038 11.4721 28.5864 11.649C29.1525 11.8082 29.6212 12.0736 29.9927 12.4451C30.435 12.8519 30.7269 13.3649 30.8684 13.9841C31.0099 14.5855 31.0807 15.3197 31.0807 16.1865V23.51C31.0807 23.9522 31.1337 24.2707 31.2399 24.4652C31.3637 24.6421 31.5583 24.7306 31.8236 24.7306C32.0005 24.7306 32.1686 24.6864 32.3278 24.5979C32.5047 24.5095 32.7081 24.3768 32.9381 24.1999L33.2034 24.651C32.8319 24.9517 32.4516 25.1905 32.0624 25.3674C31.6909 25.5443 31.2133 25.6328 30.6296 25.6328C30.0635 25.6328 29.6036 25.5443 29.2498 25.3674C28.896 25.1905 28.6306 24.934 28.4537 24.5979C28.2945 24.2618 28.2149 23.8461 28.2149 23.3508C27.755 24.0938 27.2066 24.6598 26.5698 25.049C25.9329 25.4382 25.19 25.6328 24.3409 25.6328ZM25.6145 24.3591C26.1098 24.3591 26.5698 24.2176 26.9943 23.9346C27.4366 23.6515 27.8434 23.227 28.2149 22.6609V17.3805C28.0203 17.6635 27.7373 17.9112 27.3658 18.1235C26.9943 18.3181 26.5963 18.5215 26.1718 18.7338C25.7472 18.946 25.3403 19.1937 24.9512 19.4767C24.5797 19.7421 24.2701 20.087 24.0225 20.5116C23.7748 20.9361 23.651 21.4757 23.651 22.1302C23.651 22.8201 23.8279 23.3685 24.1817 23.7753C24.5355 24.1645 25.0131 24.3591 25.6145 24.3591ZM38.9318 11.3837C39.6394 11.3837 40.2497 11.4987 40.7627 11.7286C41.2934 11.9409 41.6737 12.1355 41.9037 12.3124C42.4874 12.7723 42.8501 12.4716 42.9916 11.4102H43.5753C43.5399 11.9055 43.5134 12.507 43.4957 13.2146C43.478 13.9045 43.4692 14.8243 43.4692 15.9742H42.8854C42.7793 15.3197 42.5935 14.6828 42.3282 14.0637C42.0805 13.4445 41.7091 12.9315 41.2138 12.5247C40.7361 12.1178 40.1081 11.9144 39.3298 11.9144C38.746 11.9144 38.2596 12.0824 37.8704 12.4185C37.4812 12.737 37.2866 13.2146 37.2866 13.8514C37.2866 14.3821 37.4458 14.842 37.7643 15.2312C38.0827 15.6204 38.4895 15.983 38.9848 16.3191C39.4978 16.6552 40.0462 17.0179 40.63 17.407C41.2845 17.8493 41.8683 18.2915 42.3813 18.7338C42.912 19.1583 43.3277 19.6359 43.6284 20.1666C43.9468 20.6973 44.106 21.3165 44.106 22.0241C44.106 22.8378 43.8849 23.5277 43.4427 24.0938C43.0181 24.6598 42.452 25.0932 41.7444 25.394C41.0369 25.677 40.2585 25.8185 39.4094 25.8185C38.9848 25.8185 38.5868 25.7743 38.2153 25.6858C37.8439 25.6151 37.4989 25.5178 37.1805 25.394C36.9859 25.2878 36.7913 25.1817 36.5967 25.0755C36.4198 24.9517 36.2429 24.8367 36.066 24.7306C35.8891 24.6068 35.7299 24.6244 35.5884 24.7837C35.4469 24.9429 35.3408 25.2259 35.27 25.6328H34.6862C34.7216 25.0667 34.7482 24.3768 34.7658 23.5631C34.7835 22.7493 34.7924 21.6703 34.7924 20.3258H35.3761C35.5 21.2988 35.6857 22.1567 35.9334 22.8997C36.181 23.6427 36.5437 24.2264 37.0213 24.651C37.5166 25.0578 38.1888 25.2613 39.0379 25.2613C39.374 25.2613 39.7101 25.1905 40.0462 25.049C40.3823 24.8898 40.6565 24.6421 40.8688 24.306C41.0988 23.9699 41.2138 23.5188 41.2138 22.9528C41.2138 22.1744 40.9396 21.5376 40.3912 21.0423C39.8605 20.5293 39.1706 19.9897 38.3215 19.4237C37.72 18.9991 37.1451 18.5834 36.5967 18.1765C36.066 17.752 35.6326 17.2832 35.2965 16.7702C34.9604 16.2395 34.7924 15.6115 34.7924 14.8863C34.7924 14.0902 34.9781 13.4357 35.3496 12.9227C35.7388 12.4097 36.2518 12.0294 36.8886 11.7817C37.5254 11.5164 38.2065 11.3837 38.9318 11.3837ZM61.998 6.28905C63.1655 6.28905 64.1119 6.46595 64.8372 6.81975C65.5625 7.15585 66.2258 7.55387 66.8273 8.0138C67.0573 8.1907 67.2342 8.27915 67.358 8.27915C67.6941 8.27915 67.9152 7.73961 68.0213 6.66054H68.6316C68.5963 7.33275 68.5697 8.14647 68.552 9.10172C68.5343 10.0393 68.5255 11.2952 68.5255 12.8696H67.9152C67.7914 12.0205 67.6233 11.2333 67.4111 10.5081C67.2165 9.78277 66.8715 9.16363 66.3762 8.65063C65.8986 8.08456 65.2706 7.64232 64.4922 7.3239C63.7316 7.00549 62.9532 6.84628 62.1572 6.84628C61.2373 6.84628 60.4236 7.07625 59.716 7.53618C59.0084 7.97842 58.407 8.61525 57.9117 9.44667C57.4341 10.2781 57.0626 11.2599 56.7972 12.392C56.5496 13.5065 56.4257 14.7359 56.4257 16.0803C56.4257 19.2645 56.9122 21.5995 57.8851 23.0854C58.8758 24.5537 60.3617 25.2878 62.3429 25.2878C62.909 25.2878 63.3955 25.2082 63.8023 25.049C64.2269 24.8898 64.563 24.7306 64.8107 24.5714C65.1114 24.3591 65.306 24.1557 65.3944 23.9611C65.4829 23.7488 65.5271 23.4746 65.5271 23.1385V20.5647C65.5271 19.804 65.4563 19.2468 65.3148 18.893C65.191 18.5215 64.9345 18.2738 64.5453 18.15C64.1561 18.0085 63.5901 17.9289 62.8471 17.9112V17.3805C63.1832 17.3982 63.5812 17.4159 64.0412 17.4336C64.5011 17.4336 64.9787 17.4424 65.474 17.4601C65.987 17.4601 66.447 17.4601 66.8538 17.4601C67.4907 17.4601 68.0656 17.4513 68.5786 17.4336C69.1093 17.4159 69.5427 17.3982 69.8788 17.3805V17.9112C69.5073 17.9289 69.2242 17.9908 69.0297 18.0969C68.8528 18.2031 68.7289 18.4154 68.6582 18.7338C68.6051 19.0522 68.5786 19.5387 68.5786 20.1932V25.447H68.0479C68.0302 25.1463 67.9594 24.819 67.8356 24.4652C67.7295 24.1114 67.5614 23.9346 67.3314 23.9346C67.2076 23.9346 67.0749 23.9611 66.9334 24.0142C66.8096 24.0672 66.5885 24.1999 66.2701 24.4122C65.6509 24.8367 65.0053 25.1817 64.333 25.447C63.6608 25.6947 62.9002 25.8185 62.0511 25.8185C60.1583 25.8185 58.5397 25.447 57.1952 24.7041C55.8508 23.9434 54.8248 22.8555 54.1172 21.4403C53.4273 20.0074 53.0824 18.3092 53.0824 16.3457C53.0824 14.2937 53.4627 12.5158 54.2234 11.0122C55.0017 9.50858 56.0543 8.34991 57.381 7.53618C58.7254 6.70476 60.2644 6.28905 61.998 6.28905ZM75.052 25.6328C74.309 25.6328 73.6722 25.4912 73.1415 25.2082C72.6108 24.9252 72.2128 24.536 71.9474 24.0407C71.6821 23.5454 71.5494 22.9793 71.5494 22.3425C71.5494 21.5641 71.7263 20.9361 72.0801 20.4585C72.4339 19.9632 72.885 19.5652 73.4334 19.2645C73.9994 18.9637 74.592 18.7161 75.2112 18.5215C75.848 18.3092 76.4406 18.1146 76.989 17.9377C77.5551 17.7431 78.015 17.522 78.3688 17.2744C78.7403 17.0267 78.926 16.6995 78.926 16.2926V14.4882C78.926 13.8514 78.8199 13.3473 78.6076 12.9758C78.413 12.5866 78.1388 12.3124 77.785 12.1532C77.4489 11.994 77.0421 11.9144 76.5644 11.9144C76.1576 11.9144 75.7242 11.9763 75.2642 12.1001C74.8043 12.2063 74.4417 12.4274 74.1763 12.7635C74.5655 12.8696 74.8839 13.0819 75.1316 13.4003C75.3969 13.701 75.5296 14.0814 75.5296 14.5413C75.5296 15.0366 75.3615 15.4258 75.0254 15.7088C74.707 15.9919 74.3002 16.1334 73.8048 16.1334C73.2565 16.1334 72.8496 15.9653 72.5843 15.6292C72.3189 15.2754 72.1862 14.8686 72.1862 14.4086C72.1862 13.931 72.3012 13.5418 72.5312 13.2411C72.7788 12.9404 73.0973 12.6574 73.4864 12.392C73.911 12.109 74.4505 11.8702 75.105 11.6756C75.7773 11.481 76.5202 11.3837 77.3339 11.3837C78.0946 11.3837 78.7491 11.4721 79.2975 11.649C79.8636 11.8082 80.3324 12.0736 80.7038 12.4451C81.1461 12.8519 81.438 13.3649 81.5795 13.9841C81.721 14.5855 81.7918 15.3197 81.7918 16.1865V23.51C81.7918 23.9522 81.8448 24.2707 81.951 24.4652C82.0748 24.6421 82.2694 24.7306 82.5347 24.7306C82.7116 24.7306 82.8797 24.6864 83.0389 24.5979C83.2158 24.5095 83.4192 24.3768 83.6492 24.1999L83.9145 24.651C83.543 24.9517 83.1627 25.1905 82.7735 25.3674C82.4021 25.5443 81.9244 25.6328 81.3407 25.6328C80.7746 25.6328 80.3147 25.5443 79.9609 25.3674C79.6071 25.1905 79.3417 24.934 79.1648 24.5979C79.0056 24.2618 78.926 23.8461 78.926 23.3508C78.4661 24.0938 77.9177 24.6598 77.2809 25.049C76.644 25.4382 75.9011 25.6328 75.052 25.6328ZM76.3256 24.3591C76.8209 24.3591 77.2809 24.2176 77.7054 23.9346C78.1477 23.6515 78.5545 23.227 78.926 22.6609V17.3805C78.7314 17.6635 78.4484 17.9112 78.0769 18.1235C77.7054 18.3181 77.3074 18.5215 76.8829 18.7338C76.4583 18.946 76.0514 19.1937 75.6623 19.4767C75.2908 19.7421 74.9812 20.087 74.7336 20.5116C74.4859 20.9361 74.3621 21.4757 74.3621 22.1302C74.3621 22.8201 74.539 23.3685 74.8928 23.7753C75.2466 24.1645 75.7242 24.3591 76.3256 24.3591ZM96.8912 11.7552V12.2859C96.5551 12.3389 96.2367 12.5158 95.9359 12.8166C95.6529 13.0996 95.3876 13.5949 95.1399 14.3025L90.9474 25.5532C90.8059 25.5532 90.6556 25.5532 90.4963 25.5532C90.3548 25.5532 90.2133 25.5532 90.0718 25.5532L85.2425 13.7983C84.9595 13.1084 84.6764 12.6927 84.3934 12.5512C84.128 12.392 83.8981 12.3124 83.7035 12.3124V11.7552C84.128 11.7906 84.5614 11.8259 85.0037 11.8613C85.4636 11.879 85.9678 11.8878 86.5162 11.8878C87.0645 11.8878 87.6395 11.879 88.2409 11.8613C88.86 11.8259 89.435 11.7906 89.9657 11.7552V12.3124C89.5411 12.3124 89.1608 12.3389 88.8247 12.392C88.5063 12.4451 88.294 12.6043 88.1878 12.8696C88.0994 13.1173 88.1613 13.5507 88.3736 14.1698L91.6373 22.3955L91.4251 22.6078L94.1581 15.3639C94.4235 14.6563 94.5296 14.0902 94.4765 13.6657C94.4235 13.2234 94.2377 12.8962 93.9193 12.6839C93.6009 12.4539 93.141 12.3212 92.5395 12.2859V11.7552C92.8402 11.7729 93.1144 11.7906 93.3621 11.8082C93.6274 11.8082 93.8751 11.8171 94.105 11.8348C94.3527 11.8348 94.6092 11.8348 94.8746 11.8348C95.2637 11.8348 95.6264 11.8259 95.9625 11.8082C96.3163 11.7906 96.6258 11.7729 96.8912 11.7552ZM100.848 5.06846C101.396 5.06846 101.856 5.24536 102.228 5.59915C102.599 5.93526 102.785 6.35981 102.785 6.87281C102.785 7.38582 102.599 7.81922 102.228 8.17301C101.856 8.50911 101.396 8.67717 100.848 8.67717C100.3 8.67717 99.8396 8.50911 99.4681 8.17301C99.0967 7.81922 98.9109 7.38582 98.9109 6.87281C98.9109 6.35981 99.0967 5.93526 99.4681 5.59915C99.8396 5.24536 100.3 5.06846 100.848 5.06846ZM102.44 11.4633V22.9793C102.44 23.7223 102.582 24.2264 102.865 24.4918C103.165 24.7571 103.661 24.8898 104.351 24.8898V25.447C104.05 25.4293 103.581 25.4116 102.944 25.394C102.325 25.3586 101.688 25.3409 101.034 25.3409C100.415 25.3409 99.7777 25.3586 99.1232 25.394C98.4687 25.4116 97.9822 25.4293 97.6638 25.447V24.8898C98.3537 24.8898 98.8402 24.7571 99.1232 24.4918C99.4239 24.2264 99.5743 23.7223 99.5743 22.9793V14.6474C99.5743 13.8514 99.4416 13.2676 99.1763 12.8962C98.9109 12.507 98.4068 12.3124 97.6638 12.3124V11.7552C98.2299 11.8082 98.7782 11.8348 99.3089 11.8348C99.9104 11.8348 100.468 11.8082 100.981 11.7552C101.511 11.6844 101.998 11.5871 102.44 11.4633ZM112.253 11.3837C113.438 11.3837 114.49 11.6313 115.41 12.1267C116.33 12.622 117.064 13.4003 117.613 14.4617C118.161 15.5231 118.435 16.9117 118.435 18.6276C118.435 20.3435 118.161 21.7322 117.613 22.7936C117.064 23.8373 116.33 24.6068 115.41 25.1021C114.49 25.5797 113.438 25.8185 112.253 25.8185C111.085 25.8185 110.033 25.5797 109.095 25.1021C108.157 24.6068 107.414 23.8373 106.866 22.7936C106.335 21.7322 106.07 20.3435 106.07 18.6276C106.07 16.9117 106.335 15.5231 106.866 14.4617C107.414 13.4003 108.157 12.622 109.095 12.1267C110.033 11.6313 111.085 11.3837 112.253 11.3837ZM112.253 11.9144C111.333 11.9144 110.581 12.4451 109.997 13.5065C109.413 14.5502 109.122 16.2572 109.122 18.6276C109.122 20.9981 109.413 22.7051 109.997 23.7488C110.581 24.7748 111.333 25.2878 112.253 25.2878C113.155 25.2878 113.898 24.7748 114.482 23.7488C115.083 22.7051 115.384 20.9981 115.384 18.6276C115.384 16.2572 115.083 14.5502 114.482 13.5065C113.898 12.4451 113.155 11.9144 112.253 11.9144ZM124.955 7.37697V11.7817H128.617V12.3124H124.955V22.7405C124.955 23.4658 125.088 23.9788 125.353 24.2795C125.618 24.5802 125.999 24.7306 126.494 24.7306C126.954 24.7306 127.361 24.5448 127.715 24.1734C128.086 23.8019 128.405 23.1739 128.67 22.2894L129.174 22.4751C128.962 23.4127 128.581 24.2087 128.033 24.8633C127.502 25.5001 126.715 25.8185 125.671 25.8185C125.07 25.8185 124.566 25.7389 124.159 25.5797C123.752 25.4382 123.398 25.2259 123.098 24.9429C122.708 24.536 122.443 24.0495 122.302 23.4835C122.16 22.9174 122.089 22.1656 122.089 21.228V12.3124H119.648V11.7817H122.089V7.90766C122.638 7.88997 123.151 7.84575 123.628 7.77499C124.106 7.68654 124.548 7.55387 124.955 7.37697ZM133.407 25.6328C132.664 25.6328 132.028 25.4912 131.497 25.2082C130.966 24.9252 130.568 24.536 130.303 24.0407C130.037 23.5454 129.905 22.9793 129.905 22.3425C129.905 21.5641 130.082 20.9361 130.435 20.4585C130.789 19.9632 131.24 19.5652 131.789 19.2645C132.355 18.9637 132.947 18.7161 133.567 18.5215C134.203 18.3092 134.796 18.1146 135.344 17.9377C135.91 17.7431 136.37 17.522 136.724 17.2744C137.096 17.0267 137.281 16.6995 137.281 16.2926V14.4882C137.281 13.8514 137.175 13.3473 136.963 12.9758C136.768 12.5866 136.494 12.3124 136.14 12.1532C135.804 11.994 135.397 11.9144 134.92 11.9144C134.513 11.9144 134.08 11.9763 133.62 12.1001C133.16 12.2063 132.797 12.4274 132.532 12.7635C132.921 12.8696 133.239 13.0819 133.487 13.4003C133.752 13.701 133.885 14.0814 133.885 14.5413C133.885 15.0366 133.717 15.4258 133.381 15.7088C133.062 15.9919 132.656 16.1334 132.16 16.1334C131.612 16.1334 131.205 15.9653 130.94 15.6292C130.674 15.2754 130.542 14.8686 130.542 14.4086C130.542 13.931 130.657 13.5418 130.887 13.2411C131.134 12.9404 131.453 12.6574 131.842 12.392C132.266 12.109 132.806 11.8702 133.46 11.6756C134.133 11.481 134.876 11.3837 135.689 11.3837C136.45 11.3837 137.104 11.4721 137.653 11.649C138.219 11.8082 138.688 12.0736 139.059 12.4451C139.501 12.8519 139.793 13.3649 139.935 13.9841C140.076 14.5855 140.147 15.3197 140.147 16.1865V23.51C140.147 23.9522 140.2 24.2707 140.306 24.4652C140.43 24.6421 140.625 24.7306 140.89 24.7306C141.067 24.7306 141.235 24.6864 141.394 24.5979C141.571 24.5095 141.775 24.3768 142.005 24.1999L142.27 24.651C141.898 24.9517 141.518 25.1905 141.129 25.3674C140.757 25.5443 140.28 25.6328 139.696 25.6328C139.13 25.6328 138.67 25.5443 138.316 25.3674C137.962 25.1905 137.697 24.934 137.52 24.5979C137.361 24.2618 137.281 23.8461 137.281 23.3508C136.821 24.0938 136.273 24.6598 135.636 25.049C134.999 25.4382 134.256 25.6328 133.407 25.6328ZM134.681 24.3591C135.176 24.3591 135.636 24.2176 136.061 23.9346C136.503 23.6515 136.91 23.227 137.281 22.6609V17.3805C137.087 17.6635 136.804 17.9112 136.432 18.1235C136.061 18.3181 135.663 18.5215 135.238 18.7338C134.814 18.946 134.407 19.1937 134.018 19.4767C133.646 19.7421 133.337 20.087 133.089 20.5116C132.841 20.9361 132.717 21.4757 132.717 22.1302C132.717 22.8201 132.894 23.3685 133.248 23.7753C133.602 24.1645 134.08 24.3591 134.681 24.3591ZM147.998 11.3837C148.706 11.3837 149.316 11.4987 149.829 11.7286C150.36 11.9409 150.74 12.1355 150.97 12.3124C151.554 12.7723 151.916 12.4716 152.058 11.4102H152.642C152.606 11.9055 152.58 12.507 152.562 13.2146C152.544 13.9045 152.536 14.8243 152.536 15.9742H151.952C151.846 15.3197 151.66 14.6828 151.395 14.0637C151.147 13.4445 150.776 12.9315 150.28 12.5247C149.803 12.1178 149.175 11.9144 148.396 11.9144C147.812 11.9144 147.326 12.0824 146.937 12.4185C146.548 12.737 146.353 13.2146 146.353 13.8514C146.353 14.3821 146.512 14.842 146.831 15.2312C147.149 15.6204 147.556 15.983 148.051 16.3191C148.564 16.6552 149.113 17.0179 149.696 17.407C150.351 17.8493 150.935 18.2915 151.448 18.7338C151.978 19.1583 152.394 19.6359 152.695 20.1666C153.013 20.6973 153.172 21.3165 153.172 22.0241C153.172 22.8378 152.951 23.5277 152.509 24.0938C152.085 24.6598 151.518 25.0932 150.811 25.394C150.103 25.677 149.325 25.8185 148.476 25.8185C148.051 25.8185 147.653 25.7743 147.282 25.6858C146.91 25.6151 146.565 25.5178 146.247 25.394C146.052 25.2878 145.858 25.1817 145.663 25.0755C145.486 24.9517 145.309 24.8367 145.132 24.7306C144.956 24.6068 144.796 24.6244 144.655 24.7837C144.513 24.9429 144.407 25.2259 144.336 25.6328H143.753C143.788 25.0667 143.815 24.3768 143.832 23.5631C143.85 22.7493 143.859 21.6703 143.859 20.3258H144.443C144.566 21.2988 144.752 22.1567 145 22.8997C145.247 23.6427 145.61 24.2264 146.088 24.651C146.583 25.0578 147.255 25.2613 148.104 25.2613C148.44 25.2613 148.777 25.1905 149.113 25.049C149.449 24.8898 149.723 24.6421 149.935 24.306C150.165 23.9699 150.28 23.5188 150.28 22.9528C150.28 22.1744 150.006 21.5376 149.458 21.0423C148.927 20.5293 148.237 19.9897 147.388 19.4237C146.786 18.9991 146.212 18.5834 145.663 18.1765C145.132 17.752 144.699 17.2832 144.363 16.7702C144.027 16.2395 143.859 15.6115 143.859 14.8863C143.859 14.0902 144.045 13.4357 144.416 12.9227C144.805 12.4097 145.318 12.0294 145.955 11.7817C146.592 11.5164 147.273 11.3837 147.998 11.3837Z" fill="black"/>
<line y1="30.947" x2="158.609" y2="30.947" stroke="#D89D4A"/>
</svg>
